PathFileType	4	(X/Y/Z)	RBDS019\RBDS019runT35.trc
DataRate	CameraRate	NumFrames	NumMarkers	Units	OrigDataRate	OrigDataStartFrame	OrigNumFrames
150.000000	150.000000	4	33	mm	150.000000	2812	4500
Frame#	Time	L.ASIS			L.Heel.Bottom			L.Heel.Lateral			L.Heel.Top			L.Iliac.Crest			L.MT1			L.MT5			L.PSIS			L.Shank.Bottom.Lateral			L.Shank.Bottom.Medial			L.Shank.Top.Lateral			L.Shank.Top.Medial			L.Thigh.Bottom.Lateral			L.Thigh.Bottom.Medial			L.Thigh.Top.Lateral			L.Thigh.Top.Medial			R.ASIS			R.ASY			R.Heel.Bottom			R.Heel.Lateral			R.Heel.Top			R.Iliac.Crest			R.MT1			R.MT5			R.PSIS			R.Shank.Bottom.Lateral			R.Shank.Bottom.Medial			R.Shank.Top.Lateral			R.Shank.Top.Medial			R.Thigh.Bottom.Lateral			R.Thigh.Bottom.Medial			R.Thigh.Top.Lateral			R.Thigh.Top.Medial			
		X1	Y1	Z1	X2	Y2	Z2	X3	Y3	Z3	X4	Y4	Z4	X5	Y5	Z5	X6	Y6	Z6	X7	Y7	Z7	X8	Y8	Z8	X9	Y9	Z9	X10	Y10	Z10	X11	Y11	Z11	X12	Y12	Z12	X13	Y13	Z13	X14	Y14	Z14	X15	Y15	Z15	X16	Y16	Z16	X17	Y17	Z17	X18	Y18	Z18	X19	Y19	Z19	X20	Y20	Z20	X21	Y21	Z21	X22	Y22	Z22	X23	Y23	Z23	X24	Y24	Z24	X25	Y25	Z25	X26	Y26	Z26	X27	Y27	Z27	X28	Y28	Z28	X29	Y29	Z29	X30	Y30	Z30	X31	Y31	Z31	X32	Y32	Z32	X33	Y33	Z33	

2813	18.74666666666667	2332.163845099619	986.8753549119158	936.3896680155252	2420.788645579731	69.44925540125826	979.1796081008408	2448.473356061687	94.63521605989781	937.5225297971518	2418.364512816548	117.5585109491876	978.9742431750549	2276.373716529079	1052.571008228081	887.8724723934597	2613.358934296502	128.4671841082863	1028.958683406573	2593.834291601589	114.159709828195	923.6951686385348	2173.439257581912	1031.842918802741	988.180065734016	2465.817740771482	228.0097073914254	926.1116143475857	2426.815334987982	223.369871934894	958.5068409929314	2447.602101627802	304.823573165091	909.1049276212261	2409.029754146083	304.8053428041358	945.3689142002424	2413.857397654952	650.3761111425259	889.1779456620469	2350.404732630798	616.9318603494196	905.1992205434765	2358.934173642548	742.9904043050273	868.3504172612468	2298.297595833837	711.3176789983112	883.8635175309895	2330.718413868911	957.3632468813238	1153.997253405411	-49576632234.21034	32758701908.281	-92181282188.24577	1657.388493949295	375.1400262699796	1046.844401552858	1674.782106429064	348.7527973136353	1086.724314516553	1702.022494218053	379.1905737054854	1052.156827894592	2306.852875328513	1037.14341534303	1167.209095179368	1741.719184977439	198.4035408917684	997.1877868728392	1704.76381442566	205.1444027289939	1097.727103857475	2179.993576931113	1033.036077064996	1092.358239428117	1789.120957047097	363.5097915051782	1109.693964316065	1771.197434478238	400.4114119353164	1072.070885773969	1847.489722955077	416.6498183556392	1130.599425001209	1830.106859079814	450.7860285335453	1092.721800641892	2109.974279110011	625.1884205371446	1168.085569757192	2064.704543543939	651.4000216257893	1119.646842182307	2147.414644995688	727.3644669925937	1189.038889554205	2100.331972657211	752.4666486444308	1145.446087857424	
2814	18.75333333333333	2331.611677841587	986.8804644257115	936.3108171085767	2437.305692390573	60.58668423173518	980.0457400080315	2464.360609326392	86.69381594788395	938.5548795180331	2431.955439267842	108.5899463607459	978.9524468504072	2276.074001561121	1051.649419999327	887.5788738235037	2625.678550544783	132.1899507831347	1032.380470780817	2608.944918217278	114.6219937942704	926.8441593645997	2173.185066715324	1030.918449964056	988.3804861434153	2474.573001860215	222.4424884030822	926.1209337205715	2435.009302923303	216.0080352966021	957.6197058681736	2452.632891681632	298.2014450423875	908.0064110128691	2413.211593172643	296.4628210601807	943.3236051091227	2408.188902754521	644.9765541645044	887.2737837234254	2344.064608224315	613.5066761785616	904.3148572117387	2355.828038071204	739.2497194480283	867.0509418422321	2294.519315661086	709.3684586410382	883.3925556232566	2331.651225228444	958.0147670675705	1153.506020150178	-49638738198.98432	32799737518.34544	-92296756862.72246	1655.81058566586	396.2183773861532	1043.654628347751	1671.318849517408	369.3220891188928	1083.914529424298	1700.430897427605	398.2263928241177	1049.508352827917	2305.558665353255	1037.630668194734	1167.102491924014	1732.283676379692	215.8799324351589	996.1615677896682	1694.264193914837	224.8866033988292	1096.173896148978	2180.023729559233	1032.582329153853	1092.18267488713	1786.566073123526	377.6197934611718	1108.162651809013	1770.739558365298	415.6005524730954	1070.693982492215	1847.642152760496	427.5202600833825	1129.62554195512	1832.270846892484	462.6626293993324	1091.78537004588	2116.298534784352	621.8845134297549	1168.148528264825	2070.119816464231	647.6687057358453	1120.356130692887	2152.111245668071	724.5430257534152	1189.57259768911	2104.193077122227	749.1288877010127	1146.603192001588	
2815	18.76	2330.980260987058	986.505134091193	936.2436606986199	2450.066855862801	52.95875441640306	980.9525655140732	2476.560846839702	79.76403223937176	939.5689944014943	2442.281264202486	100.7598423581947	979.0130781339246	2275.569608768206	1050.341640330263	887.3154550338567	2634.456305727289	135.0221469978198	1035.099186319535	2620.09592657132	114.6969351242805	929.4472846490255	2172.786929705251	1029.155907842211	988.5188244777354	2480.834253477783	217.3563245959336	926.0900621680848	2440.767458234785	209.3940705465321	956.7653256078326	2455.832878202274	292.1379135385661	907.0601011681787	2415.660417437774	288.9241056355357	941.5196845133539	2402.368193026014	639.2613702947782	885.6439317786662	2337.752455801467	609.7281927958473	904.014456779197	2352.379783695652	734.9608366945725	865.9105823931186	2290.55092514645	706.8276414954705	883.3246818153066	2332.529261870875	958.179416424083	1153.06949638643	-49700896009.97017	32840807383.31152	-92412327933.01495	1656.473090131314	417.3067769319773	1040.323540067297	1670.029627077505	390.1351311159135	1081.052991369975	1700.984401252678	417.2180584933201	1046.753361995702	2304.211518196781	1037.69423962003	1166.988505577501	1724.414703176961	233.3331092205157	995.7833452966408	1685.559936194796	245.2299006866303	1095.17433943972	2179.964573660471	1031.439658131853	1091.957290320346	1785.75476371844	391.7093552835113	1106.662437800673	1772.10288741912	430.5200671787651	1069.27357981249	1849.371233786983	438.235554488257	1128.557660168918	1836.097870300611	474.1302792390918	1090.624424158669	2122.839932186455	618.0339947710672	1168.203567771212	2075.87762569055	643.3221574228913	1120.924135726206	2156.911286520576	721.1721095939229	1190.062812992015	2108.288792735617	745.179928475299	1147.567010264476	
2816	18.76666666666667	2330.266856868842	985.6999041884235	936.1297567920382	2458.708695475451	46.365318167353	981.7909391634805	2484.744308280348	73.63760241662803	940.4577821500612	2449.061420722865	93.92601437523355	979.1044923271987	2274.840632261258	1048.672705501362	887.0809979229361	2639.690700701791	136.4423756631312	1037.035363732473	2627.153654335729	113.9237646086206	931.3994799452062	2172.273895893678	1026.572201778842	988.6060810730188	2484.400422437853	212.5364183462116	926.0044485360268	2443.932535278669	203.3618484448937	956.0154460012238	2457.05956058418	286.5053217831572	906.3104484704041	2416.287894531186	282.1158814773468	940.0880919956932	2396.552216202749	633.3842162102586	884.3797108799886	2331.608560625641	605.6561944538711	904.2312549595796	2348.6826927038	730.258706236006	865.0093967155589	2286.476217967325	703.7569829756566	883.6231522452518	2333.364577651193	957.8106722154116	1152.65442260382	-49763105688.79955	32881911517.47055	-92527995439.34109	1659.435970551322	438.2012058441491	1036.960629981663	1671.031359370218	410.9927867754728	1078.233646266496	1703.743701967903	435.9735409991588	1043.977866000285	2302.911914644273	1037.259691337258	1166.852950092119	1718.163461265543	250.6378100006158	996.0686133884642	1678.839619774121	265.9979678458153	1094.763214084331	2179.848509699463	1029.601063543067	1091.721075315314	1786.760119264252	405.6464038861551	1105.238222760958	1775.333414489644	445.0273473372428	1067.852684520364	1852.739407158062	448.6746082683935	1127.419193086851	1841.620922667772	485.0597364627918	1089.268126390389	2129.518510931323	613.6478171149131	1168.252552280902	2081.928239219298	638.3449189724015	1121.309677370209	2161.74011033071	717.2612699806342	1190.46495506772	2112.560784464783	740.6141597784419	1148.269569761154	
